<svg xmlns="http://www.w3.org/2000/svg" viewBox="0 0 333334 251323" shape-rendering="geometricPrecision" text-rendering="geometricPrecision" image-rendering="optimizeQuality" fill-rule="evenodd" clip-rule="evenodd"><path d="M0 106789h67358v119844H0V106789zM221711 0c33094 0 59965 26836 59965 59966 0 33094-26836 59966-59965 59966-33094 0-59966-26836-59966-59966C161745 26872 188581 0 221711 0zm-884 67525l219 4790c0 3243-846 5798-2526 7654h26011v11552h-45728V79969h4395c1637-424 2484-1900 2572-4411l43-2263-219-5770h-6924V56351h6588l-263-9289c0-5841 1753-10412 5244-13713 3489-3286 8221-4936 14181-4936 6396 0 11376 1636 14954 4922 3578 3287 5375 7726 5375 13349h-14122c0-4484-1942-6718-5814-6718-1461 0-2628 583-3504 1737-891 1153-1330 2935-1330 5358l380 9289h13144v11174h-12677zM80916 216573V116412h45051c19099 3425 38198 13780 57297 25805h34991c15839 955 24133 17007 8747 27556-12274 8996-28460 8487-45050 6998-11442-563-11943 14819 0 14870 4140 321 8653-650 12588-654 20711-20 37770-3980 48209-20340l5248-12246 52049-25806c26047-8577 44556 18670 25369 37615-37699 27429-76367 50000-115908 68231-28722 17470-57443 16877-86165 0l-42426-21869z"/></svg>