<svg xmlns="http://www.w3.org/2000/svg" viewBox="0 0 1333.34 1332.32" shape-rendering="geometricPrecision" text-rendering="geometricPrecision" image-rendering="optimizeQuality" fill-rule="evenodd" clip-rule="evenodd"><path d="M323.23 644.52c39.44 71.14 84.87 139.46 144.04 201.8 59.17 62.69 132.77 119.74 228.21 168.34 7.04 3.52 13.73 3.52 19.72 1.06 9.16-3.52 18.32-10.92 27.47-20.07 7.05-7.05 15.85-18.32 25-30.64 36.63-48.25 82.06-108.12 146.15-78.19 1.41.7 2.47 1.41 3.87 2.11l213.77 122.91c.7.35 1.41 1.06 2.11 1.41 28.17 19.37 39.8 49.31 40.15 83.12 0 34.51-12.68 73.25-31.34 106-24.65 43.31-60.93 71.84-102.83 90.85-39.8 18.31-84.17 28.18-126.79 34.52-66.91 9.86-129.6 3.52-193.69-16.2-62.69-19.36-125.73-51.42-194.75-94.03l-4.93-3.17c-31.69-19.72-65.85-40.85-99.31-65.85-122.91-92.63-247.93-226.45-329.28-373.66C22.47 651.22-14.86 517.74 5.57 390.61c11.28-69.73 41.2-133.12 93.33-175.03 45.43-36.63 106.71-56.7 185.95-49.66 9.16.7 17.25 5.99 21.48 13.73l137 231.73c20.08 26.06 22.54 51.78 11.62 77.48-9.16 21.13-27.47 40.5-52.48 58.82-7.39 6.34-16.2 12.68-25.35 19.37-30.64 22.19-65.5 47.89-53.54 78.18l-.35-.7zm847.74-449.2c28.14 0 50.95 22.82 50.95 50.96s-22.81 50.95-50.95 50.95c-28.14 0-50.96-22.81-50.96-50.95 0-28.14 22.82-50.96 50.96-50.96zm-349.6-.19c28.21 0 51.07 22.86 51.07 51.06 0 28.2-22.87 51.05-51.07 51.05-28.21 0-51.05-22.85-51.05-51.05 0-28.2 22.83-51.06 51.05-51.06zm181.06 0c28.21 0 51.07 22.86 51.07 51.06 0 28.2-22.87 51.05-51.07 51.05-28.21 0-51.05-22.85-51.05-51.05 0-28.2 22.84-51.06 51.05-51.06zM792.23 0c-38.16 0-70.83 13.43-98 40.3-27.17 26.87-40.3 59.53-40.3 98v242.71c0 38.46 13.43 71.13 40.3 98 26.87 26.87 59.53 40.3 98 40.3h113.63c-7.93 30.53-17.7 59.53-29.91 86.7-11.91 27.48-32.36 53.73-60.45 78.77 54.04-14.04 101.97-35.11 144.41-62.89 42.13-27.48 78.77-61.98 108.99-102.58h126.15c38.16 0 70.83-13.74 98-40.3 27.17-26.87 40.29-59.54 40.29-98V138.3c0-38.17-13.43-70.83-40.29-98-26.87-27.17-59.53-40.3-98-40.3H792.24z" fill-rule="nonzero"/></svg>